<?xml version="1.0" encoding="utf-8"?>
<!-- Generator: Adobe Illustrator 23.0.3, SVG Export Plug-In . SVG Version: 6.00 Build 0)  -->
<svg version="1.1" id="Lager_1" xmlns="http://www.w3.org/2000/svg" xmlns:xlink="http://www.w3.org/1999/xlink" x="0px" y="0px"
	 viewBox="0 0 182.2 106.5" style="enable-background:new 0 0 182.2 106.5;" xml:space="preserve">
<style type="text/css">
	.st0{fill:#CA0538;}
	.st1{fill:#67737B;}
</style>
<path class="st0" d="M61.6,19.7c-5.1,3.5-11.3,9.3-14.3,12L31.2,32C52,8.5,88.1-5.7,127.1,12C101.4,4.6,79.2,7.6,61.6,19.7"/>
<path class="st0" d="M136.9,31.9c0.5,0.4,16.3,0.3,16.8,0.2c-25.6-26.1-67-27.9-92.1-9.4C85.9,12.5,114.5,12,136.9,31.9"/>
<path class="st0" d="M41.3,74.8c-1.8,0,5.9,0,5.9,0c0.4,0.1,0.6,0.3,0.7,0.4c27.4,20.9,51.7,18.7,75.3,8.6
	c-20.7,14.1-45.1,17.3-71.7,5.9c-8.3-3.6-14.5-8.8-20.2-14.8H41.3z"/>
<path class="st0" d="M153.6,74.6c-20.9,23.6-57.1,37.5-96.1,19.9c14.8,3.4,24.4,9.4,54.5-1.5c10.1-3.7,19.2-11.6,25.4-18.3H153.6z"
	/>
<g>
	<g>
		<path class="st1" d="M23.1,43.2c3.4,0,6.8,0.5,8.7,2.9c2.1-0.4,5-0.8,8.1-1.8c-4.1-6-17.4-8.2-26.7-4.9c-3.6,1.2-7.5,4.8-6.1,9.5
			c3.1,8.5,17.5,6.3,22.4,8.3c0.7,0.2,1.4,0.6,1.9,1.2c1.7,3-1,4.5-3,4.8c-4.9,0.7-11,1.4-16.1-3.5c0,0-7.7,1.3-7.6,1.4
			c4.8,9.1,25.8,10.4,33.3,3.5c3.2-2.9,2.9-8.6-1.2-11.3C29.9,49.2,20,51.5,15.7,48c-1-0.8-0.4-2.4-0.1-3
			C17.7,43,20.4,43.2,23.1,43.2"/>
	</g>
	<polygon class="st1" points="41.2,38.8 41.2,44.1 53.3,44.1 53.3,68.1 62.1,68 62,44 73.9,44 73.9,38.8 	"/>
	<rect x="77.5" y="38.7" class="st1" width="8.5" height="29.2"/>
	<polygon class="st1" points="118.2,68.1 118.2,62.6 100.8,62.6 100.8,38.7 92.5,38.7 92.5,68.2 	"/>
	<polygon class="st1" points="146.4,68.2 146.4,62.8 129.1,62.8 129.1,39 120.5,38.9 120.5,68.1 	"/>
	<polygon class="st1" points="148.7,38.9 148.6,68 177.5,68 177.5,62.7 157.2,62.7 157.2,55.8 177.5,55.8 177.5,50.5 157.2,50.5 
		157.2,43.8 177.5,43.8 177.4,38.8 	"/>
</g>
</svg>
